name Run_50002_GRF.mot
datacolumns 19
datarows 25
range 2.09 2.114
endheader
time	     ground_force_vx	     ground_force_vy	     ground_force_vz	     ground_force_px	     ground_force_py	     ground_force_pz	   l_ground_force_vx	   l_ground_force_vy	   l_ground_force_vz	   l_ground_force_px	   l_ground_force_py	   l_ground_force_pz	     ground_torque_x	     ground_torque_y	     ground_torque_z	   l_ground_torque_x	   l_ground_torque_y	   l_ground_torque_z	
2.09	          0.00000000	          0.00000000	          0.00000000	          0.00000000	          0.00000000	          0.00000000	        -27.05202300	         86.97939300	          3.52719400	          1.20231600	          0.00000000	         -0.35831200	          0.00000000	          0.00000000	          0.00000000	          0.00000000	         -4.78177700	          0.00000000	
2.091	          0.00000000	          0.00000000	          0.00000000	          0.00000000	          0.00000000	          0.00000000	        -30.25274500	         98.87988300	          4.16262900	          1.20330900	          0.00000000	         -0.35946400	          0.00000000	          0.00000000	          0.00000000	          0.00000000	         -5.21601900	          0.00000000	
2.092	          0.00000000	          0.00000000	          0.00000000	          0.00000000	          0.00000000	          0.00000000	        -33.66715600	        112.15514400	          4.88297600	          1.20434800	          0.00000000	         -0.36038600	          0.00000000	          0.00000000	          0.00000000	          0.00000000	         -5.65538000	          0.00000000	
2.093	          0.00000000	          0.00000000	          0.00000000	          0.00000000	          0.00000000	          0.00000000	        -37.28657900	        126.90264900	          5.69400800	          1.20539000	          0.00000000	         -0.36110000	          0.00000000	          0.00000000	          0.00000000	          0.00000000	         -6.09870200	          0.00000000	
2.094	          0.00000000	          0.00000000	          0.00000000	          0.00000000	          0.00000000	          0.00000000	        -41.09854500	        143.21562200	          6.60113300	          1.20640500	          0.00000000	         -0.36162500	          0.00000000	          0.00000000	          0.00000000	          0.00000000	         -6.54477500	          0.00000000	
2.095	          0.00000000	          0.00000000	          0.00000000	          0.00000000	          0.00000000	          0.00000000	        -45.08686800	        161.18081700	          7.60924000	          1.20736900	          0.00000000	         -0.36198100	          0.00000000	          0.00000000	          0.00000000	          0.00000000	         -6.99234700	          0.00000000	
2.096	          0.00000000	          0.00000000	          0.00000000	          0.00000000	          0.00000000	          0.00000000	        -49.23188400	        180.87608300	          8.72253100	          1.20826500	          0.00000000	         -0.36218600	          0.00000000	          0.00000000	          0.00000000	          0.00000000	         -7.44012400	          0.00000000	
2.097	          0.00000000	          0.00000000	          0.00000000	          0.00000000	          0.00000000	          0.00000000	        -53.51083400	        202.36782800	          9.94434800	          1.20908000	          0.00000000	         -0.36225400	          0.00000000	          0.00000000	          0.00000000	          0.00000000	         -7.88677900	          0.00000000	
2.098	          0.00000000	          0.00000000	          0.00000000	          0.00000000	          0.00000000	          0.00000000	        -57.89840300	        225.70829800	         11.27697900	          1.20980600	          0.00000000	         -0.36219900	          0.00000000	          0.00000000	          0.00000000	          0.00000000	         -8.33095400	          0.00000000	
2.099	          0.00000000	          0.00000000	          0.00000000	          0.00000000	          0.00000000	          0.00000000	        -62.36741300	        250.93281600	         12.72146700	          1.21043800	          0.00000000	         -0.36203500	          0.00000000	          0.00000000	          0.00000000	          0.00000000	         -8.77126900	          0.00000000	
2.1	          0.00000000	          0.00000000	          0.00000000	          0.00000000	          0.00000000	          0.00000000	        -66.88957200	        278.05703700	         14.27741100	          1.21097000	          0.00000000	         -0.36177200	          0.00000000	          0.00000000	          0.00000000	          0.00000000	         -9.20632700	          0.00000000	
2.101	          0.00000000	          0.00000000	          0.00000000	          0.00000000	          0.00000000	          0.00000000	        -71.43638600	        307.07431000	         15.94277100	          1.21140200	          0.00000000	         -0.36142100	          0.00000000	          0.00000000	          0.00000000	          0.00000000	         -9.63472000	          0.00000000	
2.102	          0.00000000	          0.00000000	          0.00000000	          0.00000000	          0.00000000	          0.00000000	        -75.98001100	        337.95330800	         17.71367500	          1.21173200	          0.00000000	         -0.36099000	          0.00000000	          0.00000000	          0.00000000	          0.00000000	        -10.05503500	          0.00000000	
2.103	          0.00000000	          0.00000000	          0.00000000	          0.00000000	          0.00000000	          0.00000000	        -80.49414800	        370.63577300	         19.58424000	          1.21196000	          0.00000000	         -0.36048800	          0.00000000	          0.00000000	          0.00000000	          0.00000000	        -10.46586500	          0.00000000	
2.104	          0.00000000	          0.00000000	          0.00000000	          0.00000000	          0.00000000	          0.00000000	        -84.95488700	        405.03506500	         21.54641700	          1.21208600	          0.00000000	         -0.35992200	          0.00000000	          0.00000000	          0.00000000	          0.00000000	        -10.86581200	          0.00000000	
2.105	          0.00000000	          0.00000000	          0.00000000	          0.00000000	          0.00000000	          0.00000000	        -89.34149200	        441.03485100	         23.58985100	          1.21211300	          0.00000000	         -0.35930000	          0.00000000	          0.00000000	          0.00000000	          0.00000000	        -11.25349800	          0.00000000	
2.106	          0.00000000	          0.00000000	          0.00000000	          0.00000000	          0.00000000	          0.00000000	        -93.63694800	        478.48892200	         25.70177300	          1.21204100	          0.00000000	         -0.35862600	          0.00000000	          0.00000000	          0.00000000	          0.00000000	        -11.62757000	          0.00000000	
2.107	          0.00000000	          0.00000000	          0.00000000	          0.00000000	          0.00000000	          0.00000000	        -97.82854500	        517.22155800	         27.86693600	          1.21187200	          0.00000000	         -0.35790900	          0.00000000	          0.00000000	          0.00000000	          0.00000000	        -11.98671200	          0.00000000	
2.108	          0.00000000	          0.00000000	          0.00000000	          0.00000000	          0.00000000	          0.00000000	       -101.90813400	        557.02887000	         30.06759100	          1.21161000	          0.00000000	         -0.35715200	          0.00000000	          0.00000000	          0.00000000	          0.00000000	        -12.32964700	          0.00000000	
2.109	          0.00000000	          0.00000000	          0.00000000	          0.00000000	          0.00000000	          0.00000000	       -105.87231400	        597.68121300	         32.28351200	          1.21125700	          0.00000000	         -0.35636300	          0.00000000	          0.00000000	          0.00000000	          0.00000000	        -12.65515200	          0.00000000	
2.11	          0.00000000	          0.00000000	          0.00000000	          0.00000000	          0.00000000	          0.00000000	       -109.72244300	        638.92651400	         34.49209600	          1.21081600	          0.00000000	         -0.35554600	          0.00000000	          0.00000000	          0.00000000	          0.00000000	        -12.96206000	          0.00000000	
2.111	          0.00000000	          0.00000000	          0.00000000	          0.00000000	          0.00000000	          0.00000000	       -113.46446200	        680.49444600	         36.66847600	          1.21029000	          0.00000000	         -0.35470600	          0.00000000	          0.00000000	          0.00000000	          0.00000000	        -13.24927100	          0.00000000	
2.112	          0.00000000	          0.00000000	          0.00000000	          0.00000000	          0.00000000	          0.00000000	       -117.10862700	        722.10180700	         38.78577800	          1.20968100	          0.00000000	         -0.35385100	          0.00000000	          0.00000000	          0.00000000	          0.00000000	        -13.51575900	          0.00000000	
2.113	          0.00000000	          0.00000000	          0.00000000	          0.00000000	          0.00000000	          0.00000000	       -120.66913600	        763.45813000	         40.81535700	          1.20899400	          0.00000000	         -0.35298500	          0.00000000	          0.00000000	          0.00000000	          0.00000000	        -13.76057800	          0.00000000	
2.114	          0.00000000	          0.00000000	          0.00000000	          0.00000000	          0.00000000	          0.00000000	       -124.16358200	        804.27252200	         42.72718000	          1.20823000	          0.00000000	         -0.35211400	          0.00000000	          0.00000000	          0.00000000	          0.00000000	        -13.98287100	          0.00000000	
